<svg width="146" height="67" viewBox="0 0 146 67" fill="none" xmlns="http://www.w3.org/2000/svg">
<path d="M25.0521 27V2.5H31.9821V21.505H43.6721V27H25.0521ZM52.7844 11.985H64.1594V17.165H52.7844V11.985ZM53.2744 21.645H66.0844V27H46.4144V2.5H65.6294V7.855H53.2744V21.645ZM75.145 27V7.995H67.62V2.5H89.565V7.995H82.075V27H75.145ZM91.8829 13.77L94.5079 4.67L95.4529 8.45C94.2862 8.45 93.3296 8.11167 92.5829 7.435C91.8362 6.735 91.4629 5.80166 91.4629 4.635C91.4629 3.445 91.8362 2.5 92.5829 1.8C93.3529 1.07667 94.3096 0.714998 95.4529 0.714998C96.5962 0.714998 97.5412 1.07667 98.2879 1.8C99.0346 2.5 99.4079 3.445 99.4079 4.635C99.4079 4.96167 99.3846 5.3 99.3379 5.65C99.2912 5.97667 99.1862 6.37333 99.0229 6.84C98.8829 7.28333 98.6379 7.89 98.2879 8.66L96.0479 13.77H91.8829ZM111.797 27.49C109.79 27.49 107.853 27.245 105.987 26.755C104.143 26.2417 102.638 25.5883 101.472 24.795L103.747 19.685C104.843 20.385 106.103 20.9683 107.527 21.435C108.973 21.8783 110.408 22.1 111.832 22.1C112.788 22.1 113.558 22.0183 114.142 21.855C114.725 21.6683 115.145 21.435 115.402 21.155C115.682 20.8517 115.822 20.5017 115.822 20.105C115.822 19.545 115.565 19.1017 115.052 18.775C114.538 18.4483 113.873 18.18 113.057 17.97C112.24 17.76 111.33 17.55 110.327 17.34C109.347 17.13 108.355 16.8617 107.352 16.535C106.372 16.2083 105.473 15.7883 104.657 15.275C103.84 14.7383 103.175 14.05 102.662 13.21C102.148 12.3467 101.892 11.2617 101.892 9.955C101.892 8.485 102.288 7.155 103.082 5.965C103.898 4.775 105.112 3.81833 106.722 3.095C108.332 2.37167 110.338 2.01 112.742 2.01C114.352 2.01 115.927 2.19667 117.467 2.57C119.03 2.92 120.418 3.445 121.632 4.145L119.497 9.29C118.33 8.66 117.175 8.19333 116.032 7.89C114.888 7.56333 113.78 7.4 112.707 7.4C111.75 7.4 110.98 7.505 110.397 7.715C109.813 7.90167 109.393 8.15833 109.137 8.485C108.88 8.81167 108.752 9.185 108.752 9.605C108.752 10.1417 108.997 10.5733 109.487 10.9C110 11.2033 110.665 11.46 111.482 11.67C112.322 11.8567 113.232 12.055 114.212 12.265C115.215 12.475 116.207 12.7433 117.187 13.07C118.19 13.3733 119.1 13.7933 119.917 14.33C120.733 14.8433 121.387 15.5317 121.877 16.395C122.39 17.235 122.647 18.2967 122.647 19.58C122.647 21.0033 122.238 22.3217 121.422 23.535C120.628 24.725 119.427 25.6817 117.817 26.405C116.23 27.1283 114.223 27.49 111.797 27.49Z" fill="white"/>
<path d="M14.0249 66.49C12.0882 66.49 10.2915 66.1867 8.63486 65.58C7.00153 64.95 5.5782 64.0633 4.36486 62.92C3.17486 61.7767 2.24153 60.435 1.56486 58.895C0.888197 57.3317 0.549863 55.6167 0.549863 53.75C0.549863 51.8833 0.888197 50.18 1.56486 48.64C2.24153 47.0767 3.17486 45.7233 4.36486 44.58C5.5782 43.4367 7.00153 42.5617 8.63486 41.955C10.2915 41.325 12.0882 41.01 14.0249 41.01C16.2882 41.01 18.3065 41.4067 20.0799 42.2C21.8765 42.9933 23.3699 44.1367 24.5599 45.63L20.1499 49.62C19.3565 48.6867 18.4815 47.975 17.5249 47.485C16.5915 46.995 15.5415 46.75 14.3749 46.75C13.3715 46.75 12.4499 46.9133 11.6099 47.24C10.7699 47.5667 10.0465 48.045 9.43986 48.675C8.85653 49.2817 8.38986 50.0167 8.03986 50.88C7.7132 51.7433 7.54986 52.7 7.54986 53.75C7.54986 54.8 7.7132 55.7567 8.03986 56.62C8.38986 57.4833 8.85653 58.23 9.43986 58.86C10.0465 59.4667 10.7699 59.9333 11.6099 60.26C12.4499 60.5867 13.3715 60.75 14.3749 60.75C15.5415 60.75 16.5915 60.505 17.5249 60.015C18.4815 59.525 19.3565 58.8133 20.1499 57.88L24.5599 61.87C23.3699 63.34 21.8765 64.4833 20.0799 65.3C18.3065 66.0933 16.2882 66.49 14.0249 66.49ZM27.6497 66V41.5H38.8497C41.0897 41.5 43.0147 41.8617 44.6247 42.585C46.258 43.3083 47.518 44.3583 48.4047 45.735C49.2914 47.0883 49.7347 48.6983 49.7347 50.565C49.7347 52.4083 49.2914 54.0067 48.4047 55.36C47.518 56.69 46.258 57.7167 44.6247 58.44C43.0147 59.14 41.0897 59.49 38.8497 59.49H31.4997L34.5797 56.585V66H27.6497ZM42.8047 66L36.7147 57.075H44.0997L50.2247 66H42.8047ZM34.5797 57.32L31.4997 54.135H38.4297C39.8764 54.135 40.9497 53.82 41.6497 53.19C42.373 52.56 42.7347 51.685 42.7347 50.565C42.7347 49.4217 42.373 48.535 41.6497 47.905C40.9497 47.275 39.8764 46.96 38.4297 46.96H31.4997L34.5797 43.775V57.32ZM59.9279 50.985H71.3029V56.165H59.9279V50.985ZM60.4179 60.645H73.2279V66H53.5579V41.5H72.7729V46.855H60.4179V60.645ZM74.1335 66L84.9485 41.5H91.7735L102.624 66H95.4135L86.9435 44.895H89.6735L81.2035 66H74.1335ZM80.0485 61.24L81.8335 56.13H93.8035L95.5885 61.24H80.0485ZM108.573 66V46.995H101.048V41.5H122.993V46.995H115.503V66H108.573ZM131.945 50.985H143.32V56.165H131.945V50.985ZM132.435 60.645H145.245V66H125.575V41.5H144.79V46.855H132.435V60.645Z" fill="#00E573"/>
</svg>
